# xmcd
#
# Track frame offsets: 
#        150
#        25354
#        41927
#        58430
#        74324
#        91555
#        108069
#        122134
#        138574
#        153754
#        168408
#
# Disc length: 2459 seconds
#
# Revision: 0
# Processed by: cddbd v1.5.2PL0 Copyright (c) Steve Scherf et al.
# Submitted via: ExactAudioCopy v1.0b3
#
DISCID=9309990b
DTITLE=Various Artist - Top Vizioni
DYEAR=2013
DGENRE=Country
TTITLE0=Vaj Vaj kjo Dynja
TTITLE1=Dy Tupana
TTITLE2=Knaqu Rini
TTITLE3=Sille boten Krejt
TTITLE4=Trokas
TTITLE5=Me ty Asnjëher
TTITLE6=Veç për Ty
TTITLE7=Pse më Flet
TTITLE8=Ata Sy
TTITLE9=Ëmbëlsira
TTITLE10=Bo bajm Lum
EXTD=
EXTT0=
EXTT1=
EXTT2=
EXTT3=
EXTT4=
EXTT5=
EXTT6=
EXTT7=
EXTT8=
EXTT9=
EXTT10=
PLAYORDER=
